<svg xmlns="http://www.w3.org/2000/svg" xmlns:xlink="http://www.w3.org/1999/xlink" version="1.1" x="0px" y="0px" viewBox="0 0 150 187.5" style="enable-background:new 0 0 150 150;" xml:space="preserve"><g><path d="M55,64.8H17.9c-0.8,0-1.6,0.5-1.9,1.3c-0.3,0.8,0,1.7,0.6,2.2l4.8,3.9C27,76.9,33.3,80.4,40,82.8c4.9,1.7,9.9,2.9,15,3.3   V64.8z"/><path d="M132.1,60.1H61c-1.1,0-2,0.9-2,2v2.7h0v21.6c0.6,0,1.2,0,1.8,0c5,0.7,8.8,5,8.8,10.1v3c0,3.9-1.9,7.5-5.1,9.6L45,122.6   c0,0,0,0,0,0l0,0c0,0,0,0,0,0c-0.1,0.1-0.2,0.1-0.3,0.2c0,0-0.1,0.1-0.1,0.1c0,0.1-0.1,0.1-0.1,0.2c0,0-0.1,0.1-0.1,0.1   c0,0.1-0.1,0.1-0.1,0.2c0,0,0,0.1,0,0.1c0,0.1,0,0.1-0.1,0.2c0,0.1,0,0.1,0,0.2c0,0.1,0,0.1,0,0.2v8.7c0,1.1,0.9,2,2,2h81.3   c1.1,0,2-0.9,2-2v-8.7c0-0.7-0.3-1.3-0.9-1.7L109,109.3c-3.2-2.2-5.1-5.8-5.1-9.6c0-11.5,7.3-21.6,18.2-25l10.6-3.3   c0.8-0.3,1.4-1,1.4-1.9v-7.3C134.1,61,133.2,60.1,132.1,60.1z"/><path d="M132.1,36.8c1.1,0,2-0.9,2-2c0-1.1-0.9-2-2-2H88.5v4H132.1z"/><path d="M64.1,54.6h15.4c2.8,0,5.1-2.3,5.1-5.1V36.8v-4V20.1c0-2.8-2.3-5.1-5.1-5.1H64.1c-2.8,0-5.1,2.3-5.1,5.1v29.5   C59,52.3,61.3,54.6,64.1,54.6z"/></g></svg>